<svg width="188" height="63" viewBox="0 0 188 63" fill="none" xmlns="http://www.w3.org/2000/svg">
<path d="M15.776 21.624C15.776 22.1573 15.6693 22.648 15.456 23.096C15.264 23.544 14.9973 23.928 14.656 24.248C14.336 24.5893 13.952 24.856 13.504 25.048C13.056 25.24 12.576 25.336 12.064 25.336H0.864V21.368H10.784C10.9547 21.368 11.0933 21.3147 11.2 21.208C11.3067 21.1013 11.36 20.9627 11.36 20.792V0.119999H15.776V21.624Z" fill="#BF1131"/>
<path d="M42.2613 25.336H37.4613L35.3173 19.416H24.9173L22.7733 25.336H18.0053L27.7333 0.119999H32.5333L42.2613 25.336ZM33.9093 15.448L31.9893 10.136C31.8826 9.85867 31.7439 9.50667 31.5733 9.08C31.4239 8.65333 31.2533 8.20533 31.0613 7.736C30.8906 7.24533 30.7199 6.76533 30.5493 6.296C30.3999 5.82667 30.2613 5.4 30.1333 5.016C30.0053 5.4 29.8559 5.82667 29.6853 6.296C29.5146 6.76533 29.3439 7.24533 29.1733 7.736C29.0026 8.20533 28.8319 8.65333 28.6613 9.08C28.5119 9.50667 28.3839 9.85867 28.2773 10.136L26.3573 15.448H33.9093ZM65.732 25.336H59.492L48.9 4.856C48.9 5.45333 48.9 6.12533 48.9 6.872C48.9213 7.59733 48.932 8.344 48.932 9.112C48.9533 9.85867 48.964 10.6053 48.964 11.352C48.9853 12.0773 48.996 12.7387 48.996 13.336V25.336H44.58V0.119999H50.82L61.316 19.672V0.119999H65.732V25.336ZM92.2925 25.336H87.4925L85.3485 19.416H74.9485L72.8045 25.336H68.0365L77.7645 0.119999H82.5645L92.2925 25.336ZM83.9405 15.448L82.0205 10.136C81.9138 9.85867 81.7752 9.50667 81.6045 9.08C81.4552 8.65333 81.2845 8.20533 81.0925 7.736C80.9218 7.24533 80.7512 6.76533 80.5805 6.296C80.4312 5.82667 80.2925 5.4 80.1645 5.016C80.0365 5.4 79.8872 5.82667 79.7165 6.296C79.5458 6.76533 79.3752 7.24533 79.2045 7.736C79.0338 8.20533 78.8632 8.65333 78.6925 9.08C78.5432 9.50667 78.4152 9.85867 78.3085 10.136L76.3885 15.448H83.9405ZM115.903 21.624C115.903 22.1573 115.796 22.648 115.583 23.096C115.391 23.544 115.124 23.928 114.783 24.248C114.463 24.5893 114.079 24.856 113.631 25.048C113.183 25.24 112.703 25.336 112.191 25.336H97.7905C97.2785 25.336 96.7985 25.24 96.3505 25.048C95.9025 24.856 95.5078 24.5893 95.1665 24.248C94.8465 23.928 94.5798 23.544 94.3665 23.096C94.1745 22.648 94.0785 22.1573 94.0785 21.624V3.832C94.0785 3.29867 94.1745 2.808 94.3665 2.36C94.5798 1.912 94.8465 1.528 95.1665 1.208C95.5078 0.866666 95.9025 0.599999 96.3505 0.407999C96.7985 0.215999 97.2785 0.119999 97.7905 0.119999H112.191C112.703 0.119999 113.183 0.215999 113.631 0.407999C114.079 0.599999 114.463 0.866666 114.783 1.208C115.124 1.528 115.391 1.912 115.583 2.36C115.796 2.808 115.903 3.29867 115.903 3.832V9.496H111.487V4.664C111.487 4.49333 111.433 4.35467 111.327 4.248C111.22 4.14133 111.081 4.088 110.911 4.088H99.0705C98.8998 4.088 98.7612 4.14133 98.6545 4.248C98.5478 4.35467 98.4945 4.49333 98.4945 4.664V20.792C98.4945 20.9627 98.5478 21.1013 98.6545 21.208C98.7612 21.3147 98.8998 21.368 99.0705 21.368H110.911C111.081 21.368 111.22 21.3147 111.327 21.208C111.433 21.1013 111.487 20.9627 111.487 20.792V15.896H115.903V21.624ZM140.184 25.336H134.84L126.648 13.656L124.152 16.344V25.336H119.736V0.119999H124.152V10.168L133.464 0.119999H139.224L129.752 10.328L140.184 25.336ZM23.712 58.624C23.712 59.1573 23.6053 59.648 23.392 60.096C23.2 60.544 22.9333 60.928 22.592 61.248C22.272 61.5893 21.888 61.856 21.44 62.048C20.992 62.24 20.512 62.336 20 62.336H5.6C5.088 62.336 4.608 62.24 4.16 62.048C3.712 61.856 3.31733 61.5893 2.976 61.248C2.656 60.928 2.38933 60.544 2.176 60.096C1.984 59.648 1.888 59.1573 1.888 58.624V40.832C1.888 40.2987 1.984 39.808 2.176 39.36C2.38933 38.912 2.656 38.528 2.976 38.208C3.31733 37.8667 3.712 37.6 4.16 37.408C4.608 37.216 5.088 37.12 5.6 37.12H20C20.512 37.12 20.992 37.216 21.44 37.408C21.888 37.6 22.272 37.8667 22.592 38.208C22.9333 38.528 23.2 38.912 23.392 39.36C23.6053 39.808 23.712 40.2987 23.712 40.832V58.624ZM18.72 58.368C18.8907 58.368 19.0293 58.3147 19.136 58.208C19.2427 58.1013 19.296 57.9627 19.296 57.792V41.664C19.296 41.4933 19.2427 41.3547 19.136 41.248C19.0293 41.1413 18.8907 41.088 18.72 41.088H6.88C6.70933 41.088 6.57067 41.1413 6.464 41.248C6.35733 41.3547 6.304 41.4933 6.304 41.664V57.792C6.304 57.9627 6.35733 58.1013 6.464 58.208C6.57067 58.3147 6.70933 58.368 6.88 58.368H18.72ZM39.845 62.336H34.341L25.509 37.12H30.149L35.269 52.608C35.3543 52.9067 35.4717 53.2693 35.621 53.696C35.7703 54.1013 35.9197 54.5387 36.069 55.008C36.2397 55.4773 36.4103 55.968 36.581 56.48C36.7517 56.9707 36.9223 57.44 37.093 57.888C37.2637 57.44 37.4343 56.9707 37.605 56.48C37.7757 55.968 37.9357 55.4773 38.085 55.008C38.2557 54.5387 38.405 54.1013 38.533 53.696C38.6823 53.2693 38.8103 52.9067 38.917 52.608L44.037 37.12H48.677L39.845 62.336ZM69.2695 62.336H54.0375C53.5255 62.336 53.0455 62.24 52.5975 62.048C52.1495 61.856 51.7548 61.5893 51.4135 61.248C51.0935 60.928 50.8268 60.544 50.6135 60.096C50.4215 59.648 50.3255 59.1573 50.3255 58.624V40.832C50.3255 40.2987 50.4215 39.808 50.6135 39.36C50.8268 38.912 51.0935 38.528 51.4135 38.208C51.7548 37.8667 52.1495 37.6 52.5975 37.408C53.0455 37.216 53.5255 37.12 54.0375 37.12H68.6295V41.088H55.3175C55.1468 41.088 55.0082 41.1413 54.9015 41.248C54.7948 41.3547 54.7415 41.4933 54.7415 41.664V47.04H67.8295V51.008H54.7415V57.792C54.7415 57.9627 54.7948 58.1013 54.9015 58.208C55.0082 58.3147 55.1468 58.368 55.3175 58.368H69.2695V62.336ZM93.4038 62.336H88.4118L83.1958 52.128H77.3398V62.336H72.9238V37.12H88.1878C88.6998 37.12 89.1798 37.216 89.6278 37.408C90.0758 37.6 90.4598 37.8667 90.7798 38.208C91.1211 38.528 91.3878 38.912 91.5798 39.36C91.7931 39.808 91.8998 40.2987 91.8998 40.832V48.416C91.8998 48.9493 91.7931 49.44 91.5798 49.888C91.3878 50.336 91.1211 50.7307 90.7798 51.072C90.4598 51.392 90.0758 51.648 89.6278 51.84C89.1798 52.032 88.6998 52.128 88.1878 52.128H88.0918L93.4038 62.336ZM86.9078 48.16C87.0784 48.16 87.2171 48.1067 87.3238 48C87.4304 47.8933 87.4838 47.7547 87.4838 47.584V41.664C87.4838 41.4933 87.4304 41.3547 87.3238 41.248C87.2171 41.1413 87.0784 41.088 86.9078 41.088H77.3398V48.16H86.9078ZM129.866 62.336H118.666C118.154 62.336 117.674 62.24 117.226 62.048C116.778 61.856 116.383 61.5893 116.042 61.248C115.722 60.928 115.455 60.544 115.242 60.096C115.05 59.648 114.954 59.1573 114.954 58.624V37.12H119.37V57.792C119.37 57.9627 119.423 58.1013 119.53 58.208C119.636 58.3147 119.775 58.368 119.946 58.368H129.866V62.336ZM154.431 58.624C154.431 59.1573 154.324 59.648 154.111 60.096C153.919 60.544 153.652 60.928 153.311 61.248C152.991 61.5893 152.607 61.856 152.159 62.048C151.711 62.24 151.231 62.336 150.719 62.336H136.319C135.807 62.336 135.327 62.24 134.879 62.048C134.431 61.856 134.036 61.5893 133.695 61.248C133.375 60.928 133.108 60.544 132.895 60.096C132.703 59.648 132.607 59.1573 132.607 58.624V40.832C132.607 40.2987 132.703 39.808 132.895 39.36C133.108 38.912 133.375 38.528 133.695 38.208C134.036 37.8667 134.431 37.6 134.879 37.408C135.327 37.216 135.807 37.12 136.319 37.12H150.719C151.231 37.12 151.711 37.216 152.159 37.408C152.607 37.6 152.991 37.8667 153.311 38.208C153.652 38.528 153.919 38.912 154.111 39.36C154.324 39.808 154.431 40.2987 154.431 40.832V58.624ZM149.439 58.368C149.609 58.368 149.748 58.3147 149.855 58.208C149.961 58.1013 150.015 57.9627 150.015 57.792V41.664C150.015 41.4933 149.961 41.3547 149.855 41.248C149.748 41.1413 149.609 41.088 149.439 41.088H137.599C137.428 41.088 137.289 41.1413 137.183 41.248C137.076 41.3547 137.023 41.4933 137.023 41.664V57.792C137.023 57.9627 137.076 58.1013 137.183 58.208C137.289 58.3147 137.428 58.368 137.599 58.368H149.439ZM181.884 62.336H176.06L173.052 47.712C172.86 46.7307 172.658 45.7387 172.444 44.736C172.252 43.712 172.071 42.7093 171.9 41.728C171.73 42.7093 171.538 43.712 171.324 44.736C171.132 45.76 170.94 46.752 170.748 47.712L167.74 62.336H161.916L156.7 37.152H161.468L164.412 53.696C164.519 54.2507 164.626 54.9013 164.732 55.648C164.86 56.3733 164.967 57.0133 165.052 57.568C165.159 57.0133 165.255 56.3733 165.34 55.648C165.426 54.9013 165.522 54.2507 165.628 53.696L169.116 37.152H174.684L178.172 53.696C178.279 54.2507 178.375 54.9013 178.46 55.648C178.546 56.3733 178.642 57.0133 178.748 57.568C178.812 57.0133 178.908 56.3733 179.036 55.648C179.164 54.9013 179.282 54.2507 179.388 53.696L182.332 37.152H187.1L181.884 62.336Z" fill="#333333"/>
<path d="M111.32 52.128H100.088V62.336H95.6723V40.832C95.6723 40.2987 95.7683 39.808 95.9603 39.36C96.1736 38.912 96.4403 38.528 96.7603 38.208C97.1016 37.8667 97.4963 37.6 97.9443 37.408C98.3923 37.216 98.8723 37.12 99.3843 37.12H112.056V41.088H100.664C100.494 41.088 100.355 41.1413 100.248 41.248C100.142 41.3547 100.088 41.4933 100.088 41.664V48.16H111.32V52.128Z" fill="#025939"/>
</svg>
