<svg width="696" height="329" viewBox="0 0 696 329" fill="none" xmlns="http://www.w3.org/2000/svg">
<path d="M82.56 66.64H63.744V53.68H10.56V37.744H63.744V28.24H8.64V12.112H82.56V66.64ZM87.936 91.888H3.264V75.76H29.472V59.44H50.208V75.76H87.936V91.888ZM176.179 55.888H157.363V10.192H176.179V55.888ZM151.603 54.448H96.8828V11.152H147.955V26.992H115.699V38.608H151.603V54.448ZM158.707 58.096C162.035 58.096 164.915 58.608 167.347 59.632C169.779 60.656 171.763 62.064 173.299 63.856C174.899 65.584 176.083 67.632 176.851 70C177.619 72.304 178.003 74.736 178.003 77.296C178.003 79.856 177.587 82.288 176.755 84.592C175.987 86.96 174.803 89.008 173.203 90.736C171.603 92.528 169.555 93.936 167.059 94.96C164.627 95.984 161.747 96.496 158.419 96.496H118.867C115.539 96.496 112.659 95.984 110.227 94.96C107.859 93.936 105.907 92.528 104.371 90.736C102.835 89.008 101.683 86.96 100.915 84.592C100.211 82.288 99.8588 79.856 99.8588 77.296C99.8588 74.736 100.243 72.304 101.011 70C101.779 67.632 102.931 65.584 104.467 63.856C106.067 62.064 108.083 60.656 110.515 59.632C112.947 58.608 115.827 58.096 119.155 58.096H158.707ZM154.387 80.848C155.859 80.848 157.011 80.528 157.843 79.888C158.739 79.248 159.187 78.384 159.187 77.296C159.187 76.208 158.771 75.344 157.939 74.704C157.107 74 155.923 73.648 154.387 73.648H123.475C121.939 73.648 120.755 74 119.923 74.704C119.091 75.344 118.675 76.208 118.675 77.296C118.675 78.384 119.091 79.248 119.923 79.888C120.819 80.528 122.003 80.848 123.475 80.848H154.387Z" fill="#BF6071"/>
<path d="M239.462 70.384C239.462 73.584 238.79 76.432 237.446 78.928C236.166 81.424 234.342 83.536 231.974 85.264C229.606 87.056 226.758 88.4 223.43 89.296C220.166 90.256 216.518 90.736 212.486 90.736C208.518 90.736 204.87 90.288 201.542 89.392C198.278 88.496 195.462 87.184 193.094 85.456C190.726 83.728 188.902 81.616 187.622 79.12C186.342 76.56 185.702 73.648 185.702 70.384V56.848C185.702 53.584 186.342 50.672 187.622 48.112C188.902 45.552 190.726 43.376 193.094 41.584C195.462 39.792 198.278 38.416 201.542 37.456C204.87 36.496 208.518 36.016 212.486 36.016C216.518 36.016 220.166 36.496 223.43 37.456C226.758 38.416 229.606 39.792 231.974 41.584C234.342 43.376 236.166 45.552 237.446 48.112C238.79 50.672 239.462 53.584 239.462 56.848V70.384ZM263.558 94.96H244.742V10.192H263.558V44.56H273.638V61.744H263.558V94.96ZM240.902 33.424H183.878V17.68H203.078V8.848H222.278V17.68H240.902V33.424ZM220.454 57.904C220.454 55.856 219.718 54.288 218.246 53.2C216.774 52.112 214.886 51.568 212.582 51.568C210.278 51.568 208.39 52.112 206.918 53.2C205.446 54.288 204.71 55.856 204.71 57.904V68.944C204.71 70.992 205.446 72.56 206.918 73.648C208.39 74.672 210.278 75.184 212.582 75.184C214.886 75.184 216.774 74.672 218.246 73.648C219.718 72.56 220.454 70.992 220.454 68.944V57.904ZM358.136 94.96H339.32V72.784H329.912V88.528H279.8V11.632H329.912V26.8H339.32V10.192H358.136V94.96ZM311.096 72.304V27.76H298.616V72.304H311.096ZM339.32 55.6V43.984H329.912V55.6H339.32ZM445.649 88.528H395.537V11.632H445.649V88.528ZM470.993 94.96H452.177V10.192H470.993V39.76H482.513V56.944H470.993V94.96ZM426.833 72.304V27.76H414.353V72.304H426.833ZM564.323 57.904C558.435 55.984 552.387 53.872 546.179 51.568C540.035 49.264 534.019 46.8 528.131 44.176L528.035 44.08V44.176C522.147 46.8 516.099 49.264 509.891 51.568C503.747 53.872 497.731 55.984 491.843 57.904L485.507 43.312C490.307 41.456 495.171 39.504 500.099 37.456C505.027 35.344 509.507 33.36 513.539 31.504C515.395 30.672 516.611 29.424 517.187 27.76H490.211V11.632H566.051V27.76H538.883C539.395 29.36 540.643 30.608 542.627 31.504C546.659 33.36 551.139 35.344 556.067 37.456C560.995 39.504 565.859 41.456 570.659 43.312L564.323 57.904ZM570.467 76.24H538.499V94.96H517.763V76.24H485.795V60.112H570.467V76.24ZM628.182 62.128C624.47 59.824 620.822 57.552 617.238 55.312C613.718 53.072 610.326 50.8 607.062 48.496C603.99 50.8 600.534 52.976 596.694 55.024C592.918 57.072 588.918 59.184 584.694 61.36L575.478 48.112C578.806 46.256 581.974 44.432 584.982 42.64C587.99 40.784 590.87 38.736 593.622 36.496C594.646 35.664 595.382 34.864 595.83 34.096C596.278 33.328 596.566 32.4 596.694 31.312H578.262V15.76H596.79V7.984H616.566V15.76H634.806V31.312H616.662C616.79 32.016 617.014 32.72 617.334 33.424C617.654 34.064 618.166 34.672 618.87 35.248C620.214 36.4 621.654 37.584 623.19 38.8C624.79 40.016 626.422 41.232 628.086 42.448C629.75 43.6 631.414 44.784 633.078 46C634.742 47.152 636.342 48.24 637.878 49.264L628.182 62.128ZM659.19 94.96H586.134V64.336H604.95V79.696H659.19V94.96ZM658.71 71.92H639.894V10.192H658.71V71.92ZM267.014 156.464H189.83V134.768H247.046V132.464H189.83V122.48H265.958V143.888H208.742V146.192H267.014V156.464ZM270.374 170H185.702V159.056H270.374V170ZM267.302 206.96H189.734V185.168H247.43V182.864H189.734V172.688H266.342V194.096H208.646V196.4H267.302V206.96ZM539.555 182.384C539.555 185.584 538.883 188.432 537.539 190.928C536.259 193.424 534.435 195.536 532.067 197.264C529.699 199.056 526.851 200.4 523.523 201.296C520.259 202.256 516.611 202.736 512.579 202.736C508.611 202.736 504.963 202.288 501.635 201.392C498.371 200.496 495.555 199.184 493.187 197.456C490.819 195.728 488.995 193.616 487.715 191.12C486.435 188.56 485.795 185.648 485.795 182.384V168.848C485.795 165.584 486.435 162.672 487.715 160.112C488.995 157.552 490.819 155.376 493.187 153.584C495.555 151.792 498.371 150.416 501.635 149.456C504.963 148.496 508.611 148.016 512.579 148.016C516.611 148.016 520.259 148.496 523.523 149.456C526.851 150.416 529.699 151.792 532.067 153.584C534.435 155.376 536.259 157.552 537.539 160.112C538.883 162.672 539.555 165.584 539.555 168.848V182.384ZM563.651 206.96H544.835V122.192H563.651V156.56H573.731V173.744H563.651V206.96ZM540.995 145.424H483.971V129.68H503.171V120.848H522.371V129.68H540.995V145.424ZM520.547 169.904C520.547 167.856 519.811 166.288 518.339 165.2C516.867 164.112 514.979 163.568 512.675 163.568C510.371 163.568 508.483 164.112 507.011 165.2C505.539 166.288 504.803 167.856 504.803 169.904V180.944C504.803 182.992 505.539 184.56 507.011 185.648C508.483 186.672 510.371 187.184 512.675 187.184C514.979 187.184 516.867 186.672 518.339 185.648C519.811 184.56 520.547 182.992 520.547 180.944V169.904ZM661.686 203.888H577.014V187.76H602.262V159.92H622.998V187.76H661.686V203.888ZM656.31 178.64H637.494V140.24H582.39V124.112H656.31V178.64Z" fill="black"/>
<path d="M65.76 206.192H48.288V168.944H43.68V181.52C43.68 184.912 43.168 187.92 42.144 190.544C41.184 193.168 39.808 195.376 38.016 197.168C36.288 199.024 34.144 200.432 31.584 201.392C29.088 202.352 26.304 202.832 23.232 202.832C20.16 202.832 17.344 202.352 14.784 201.392C12.288 200.432 10.144 199.024 8.352 197.168C6.624 195.376 5.248 193.168 4.224 190.544C3.264 187.92 2.784 184.912 2.784 181.52V144.08C2.784 140.752 3.264 137.776 4.224 135.152C5.248 132.464 6.624 130.224 8.352 128.432C10.144 126.576 12.288 125.168 14.784 124.208C17.344 123.248 20.16 122.768 23.232 122.768C26.304 122.768 29.088 123.248 31.584 124.208C34.144 125.168 36.288 126.576 38.016 128.432C39.808 130.224 41.184 132.464 42.144 135.152C43.168 137.776 43.68 140.752 43.68 144.08V151.76H48.288V122.48H65.76V206.192ZM86.784 206.96H69.12V122.192H86.784V206.96ZM20.064 182C20.064 183.28 20.32 184.4 20.832 185.36C21.344 186.256 22.144 186.704 23.232 186.704C24.32 186.704 25.12 186.256 25.632 185.36C26.144 184.4 26.4 183.28 26.4 182V143.6C26.4 142.32 26.144 141.232 25.632 140.336C25.12 139.376 24.32 138.896 23.232 138.896C22.144 138.896 21.344 139.376 20.832 140.336C20.32 141.232 20.064 142.32 20.064 143.6V182ZM175.699 206.96H156.883V193.424L148.723 201.584H97.3628V153.776H124.147V139.28H97.3628V123.152H142.963V169.904H116.179V185.264H156.883V167.984H146.323V150.8H156.883V122.192H175.699V206.96Z" fill="#BF1131"/>
<path d="M384.574 206.96H365.758V122.192H384.574V206.96ZM355.294 151.76C355.294 154.832 354.782 157.84 353.758 160.784C352.734 163.728 351.198 166.416 349.15 168.848C346.782 171.664 344.222 174.544 341.47 177.488C338.782 180.368 335.966 183.248 333.022 186.128C330.078 189.008 327.07 191.824 323.998 194.576C320.926 197.328 317.886 199.952 314.878 202.448L302.686 189.872C308.382 184.944 313.726 180.048 318.718 175.184C323.774 170.32 328.35 165.392 332.446 160.4C333.726 158.864 334.686 157.2 335.326 155.408C336.03 153.552 336.382 151.504 336.382 149.264V139.76H306.238V123.632H355.294V151.76ZM479.249 178.16H394.577V165.872H426.161V162.224H398.705V136.88H456.017V134.288H398.705V122.48H474.833V147.632H417.521V150.224H475.889V162.224H447.665V165.872H479.249V178.16ZM475.121 207.44H456.209V193.424H398.513V181.136H475.121V207.44Z" fill="#025939"/>
<path d="M45.392 271.48H36.56V254.872H34.64V271.096H25.904V229.24H34.64V246.28H36.56V229.096H45.392V271.48ZM24.272 259.192C24.272 262.232 23.408 264.6 21.68 266.296C19.952 268.024 17.392 268.888 14 268.888C10.608 268.888 8.064 268.04 6.368 266.344C4.672 264.68 3.824 262.296 3.824 259.192V251.56C3.824 248.456 4.672 246.024 6.368 244.264C8.064 242.504 10.608 241.624 14 241.624C17.392 241.624 19.952 242.504 21.68 244.264C23.408 246.024 24.272 248.456 24.272 251.56V259.192ZM24.752 240.712H3.344V232.84H9.392V228.664H18.992V232.84H24.752V240.712ZM12.368 259.192C12.368 259.928 12.528 260.44 12.848 260.728C13.2 260.984 13.6 261.112 14.048 261.112C14.496 261.112 14.88 260.984 15.2 260.728C15.552 260.44 15.728 259.928 15.728 259.192V251.368C15.728 250.632 15.552 250.12 15.2 249.832C14.88 249.544 14.496 249.4 14.048 249.4C13.6 249.4 13.2 249.544 12.848 249.832C12.528 250.12 12.368 250.632 12.368 251.368V259.192ZM90.5694 271.48H53.8494V258.328H80.6814V256.936H53.8494V250.744H90.0894V263.704H63.2574V265.096H90.5694V271.48ZM90.0894 249.496H80.6814V247.48H71.8974V243.784C70.6814 244.712 69.1614 245.464 67.3374 246.04C64.3614 246.968 61.5614 247.72 58.9374 248.296C56.3134 248.84 53.7054 249.384 51.1134 249.928L48.5214 243.4C49.8974 243.08 51.2894 242.76 52.6974 242.44C54.1374 242.088 55.5294 241.752 56.8734 241.432C58.2494 241.08 59.5454 240.744 60.7614 240.424C61.9774 240.072 63.0974 239.736 64.1214 239.416C64.5374 239.256 64.8734 239.016 65.1294 238.696C65.4174 238.376 65.5614 238.04 65.5614 237.688V236.536H50.4414V229.576H74.9694V231.496H80.6814V229.096H90.0894V249.496ZM80.6814 240.664V238.312H74.9694C74.9054 239.176 74.7134 239.96 74.3934 240.664H80.6814ZM135.699 271.48H126.291V265.192L122.259 269.224H95.1388V261.16H105.123V255.352H96.5788V230.056H123.267V238.12H105.987V247.288H123.747V255.352H115.011V261.16H126.291V229.096H135.699V271.48ZM181.308 259.48H171.9V250.552H166.716V253.336H141.42V229.576H166.716V232.312H171.9V229.096H181.308V259.48ZM181.548 271.48H145.02V255.688H154.428V263.608H181.548V271.48ZM157.308 245.416V237.496H150.828V245.416H157.308ZM171.9 243.208V239.656H166.716V243.208H171.9ZM222.376 268.024C220.776 265.976 219.24 263.928 217.768 261.88C216.328 259.8 214.936 257.8 213.592 255.88C212.152 257.928 210.6 260.072 208.936 262.312C207.272 264.552 205.56 266.728 203.8 268.84L197.32 263.512C199.048 261.24 200.776 258.84 202.504 256.312C204.232 253.752 205.816 251.288 207.256 248.92C207.704 248.184 208.024 247.368 208.216 246.472C208.44 245.544 208.552 244.616 208.552 243.688V238.504H200.44V229.816H226.6V238.504H218.632V243.688C218.632 244.616 218.728 245.528 218.92 246.424C219.144 247.32 219.48 248.136 219.928 248.872C221.24 251.08 222.712 253.384 224.344 255.784C226.008 258.184 227.624 260.44 229.192 262.552L222.376 268.024ZM239.896 271.48H230.488V250.072H223.096V241.672H230.488V229.096H239.896V271.48ZM285.026 271.72H275.618V264.136H247.106V257.656H260.69V255.256H244.898V248.632H287.234V255.256H271.442V257.656H285.026V271.72ZM285.074 248.104C281.778 247.4 278.578 246.648 275.474 245.848C272.37 245.048 269.234 244.232 266.066 243.4C262.866 244.232 259.714 245.048 256.61 245.848C253.506 246.648 250.306 247.4 247.01 248.104L244.946 241.624C247.41 241.048 249.842 240.44 252.242 239.8C254.642 239.128 257.042 238.456 259.442 237.784C259.89 237.688 260.242 237.512 260.498 237.256H246.962V230.68H260.546V227.944H271.586V230.68H285.218V237.256H271.538C271.73 237.448 272.114 237.624 272.69 237.784C275.09 238.456 277.474 239.128 279.842 239.8C282.242 240.44 284.69 241.048 287.186 241.624L285.074 248.104ZM332.843 269.944H290.507V261.88H306.491V255.88H293.195V230.056H330.155V238.12H302.603V247.816H330.635V255.88H316.859V261.88H332.843V269.944ZM376.215 259.192C376.215 260.792 375.879 262.216 375.207 263.464C374.567 264.712 373.655 265.768 372.471 266.632C371.287 267.528 369.863 268.2 368.199 268.648C366.567 269.128 364.743 269.368 362.727 269.368C360.743 269.368 358.919 269.144 357.255 268.696C355.623 268.248 354.215 267.592 353.031 266.728C351.847 265.864 350.935 264.808 350.295 263.56C349.655 262.28 349.335 260.824 349.335 259.192V252.424C349.335 250.792 349.655 249.336 350.295 248.056C350.935 246.776 351.847 245.688 353.031 244.792C354.215 243.896 355.623 243.208 357.255 242.728C358.919 242.248 360.743 242.008 362.727 242.008C364.743 242.008 366.567 242.248 368.199 242.728C369.863 243.208 371.287 243.896 372.471 244.792C373.655 245.688 374.567 246.776 375.207 248.056C375.879 249.336 376.215 250.792 376.215 252.424V259.192ZM388.263 271.48H378.855V229.096H388.263V246.28H393.303V254.872H388.263V271.48ZM376.935 240.712H348.423V232.84H358.023V228.424H367.623V232.84H376.935V240.712ZM366.711 252.952C366.711 251.928 366.343 251.144 365.607 250.6C364.871 250.056 363.927 249.784 362.775 249.784C361.623 249.784 360.679 250.056 359.943 250.6C359.207 251.144 358.839 251.928 358.839 252.952V258.472C358.839 259.496 359.207 260.28 359.943 260.824C360.679 261.336 361.623 261.592 362.775 261.592C363.927 261.592 364.871 261.336 365.607 260.824C366.343 260.28 366.711 259.496 366.711 258.472V252.952ZM437.281 269.944H394.945V261.88H407.569V247.96H417.937V261.88H437.281V269.944ZM434.593 257.32H425.185V238.12H397.633V230.056H434.593V257.32ZM442.666 258.904C442.602 258.168 442.506 257.272 442.378 256.216C442.282 255.128 442.186 254.056 442.09 253C441.994 251.912 441.898 250.888 441.802 249.928C441.738 248.968 441.706 248.248 441.706 247.768V228.76H451.594V247.768C451.594 248.28 451.546 249.016 451.45 249.976C451.386 250.904 451.306 251.912 451.21 253C451.114 254.088 451.002 255.16 450.874 256.216C450.778 257.272 450.698 258.168 450.634 258.904H442.666ZM451.45 270.232H441.85V262.12H451.45V270.232ZM45.392 327.48H36.56V310.872H34.64V327.096H25.904V285.24H34.64V302.28H36.56V285.096H45.392V327.48ZM24.272 315.192C24.272 318.232 23.408 320.6 21.68 322.296C19.952 324.024 17.392 324.888 14 324.888C10.608 324.888 8.064 324.04 6.368 322.344C4.672 320.68 3.824 318.296 3.824 315.192V307.56C3.824 304.456 4.672 302.024 6.368 300.264C8.064 298.504 10.608 297.624 14 297.624C17.392 297.624 19.952 298.504 21.68 300.264C23.408 302.024 24.272 304.456 24.272 307.56V315.192ZM24.752 296.712H3.344V288.84H9.392V284.664H18.992V288.84H24.752V296.712ZM12.368 315.192C12.368 315.928 12.528 316.44 12.848 316.728C13.2 316.984 13.6 317.112 14.048 317.112C14.496 317.112 14.88 316.984 15.2 316.728C15.552 316.44 15.728 315.928 15.728 315.192V307.368C15.728 306.632 15.552 306.12 15.2 305.832C14.88 305.544 14.496 305.4 14.048 305.4C13.6 305.4 13.2 305.544 12.848 305.832C12.528 306.12 12.368 306.632 12.368 307.368V315.192ZM90.5694 327.48H53.8494V314.328H80.6814V312.936H53.8494V306.744H90.0894V319.704H63.2574V321.096H90.5694V327.48ZM90.0894 305.496H80.6814V303.48H71.8974V299.784C70.6814 300.712 69.1614 301.464 67.3374 302.04C64.3614 302.968 61.5614 303.72 58.9374 304.296C56.3134 304.84 53.7054 305.384 51.1134 305.928L48.5214 299.4C49.8974 299.08 51.2894 298.76 52.6974 298.44C54.1374 298.088 55.5294 297.752 56.8734 297.432C58.2494 297.08 59.5454 296.744 60.7614 296.424C61.9774 296.072 63.0974 295.736 64.1214 295.416C64.5374 295.256 64.8734 295.016 65.1294 294.696C65.4174 294.376 65.5614 294.04 65.5614 293.688V292.536H50.4414V285.576H74.9694V287.496H80.6814V285.096H90.0894V305.496ZM80.6814 296.664V294.312H74.9694C74.9054 295.176 74.7134 295.96 74.3934 296.664H80.6814ZM103.539 311.832C102.227 311.832 101.027 311.624 99.9388 311.208C98.8828 310.792 97.9868 310.216 97.2508 309.48C96.5148 308.712 95.9388 307.832 95.5228 306.84C95.1388 305.816 94.9468 304.728 94.9468 303.576C94.9468 302.424 95.1388 301.352 95.5228 300.36C95.9388 299.336 96.5148 298.456 97.2508 297.72C97.9868 296.952 98.8828 296.36 99.9388 295.944C101.027 295.528 102.227 295.32 103.539 295.32H112.947C114.259 295.32 115.443 295.528 116.499 295.944C117.555 296.36 118.451 296.952 119.187 297.72C119.955 298.456 120.531 299.336 120.915 300.36C121.331 301.352 121.539 302.424 121.539 303.576C121.539 304.728 121.331 305.816 120.915 306.84C120.531 307.832 119.955 308.712 119.187 309.48C118.451 310.216 117.555 310.792 116.499 311.208C115.443 311.624 114.259 311.832 112.947 311.832H103.539ZM134.019 316.44H124.611V285.096H134.019V296.904H138.723V304.968H134.019V316.44ZM134.259 327.48H97.7308V313.608H107.139V320.568H134.259V327.48ZM122.163 294.024H94.3708V287.592H103.587V283.512H113.139V287.592H122.163V294.024ZM110.499 305.352C111.043 305.352 111.459 305.192 111.747 304.872C112.067 304.552 112.227 304.12 112.227 303.576C112.227 303.032 112.067 302.6 111.747 302.28C111.459 301.96 111.043 301.8 110.499 301.8H105.987C105.443 301.8 105.011 301.96 104.691 302.28C104.403 302.6 104.259 303.032 104.259 303.576C104.259 304.12 104.403 304.552 104.691 304.872C105.011 305.192 105.443 305.352 105.987 305.352H110.499ZM194.527 308.664H185.119V305.304H176.335V302.52C175.823 302.968 175.247 303.368 174.607 303.72C173.999 304.04 173.327 304.344 172.591 304.632C169.935 305.656 167.167 306.552 164.287 307.32C161.407 308.088 158.511 308.872 155.599 309.672L152.911 302.712C155.759 301.912 158.543 301.064 161.263 300.168C164.015 299.272 166.447 298.36 168.559 297.432C169.103 297.176 169.471 296.84 169.663 296.424C169.887 296.008 169.999 295.512 169.999 294.936V293.448H154.879V285.576H179.407V287.976H185.119V285.096H194.527V308.664ZM185.791 309.768C187.455 309.768 188.895 310.008 190.111 310.488C191.327 310.968 192.319 311.624 193.087 312.456C193.887 313.288 194.479 314.264 194.863 315.384C195.247 316.504 195.439 317.704 195.439 318.984C195.439 320.264 195.231 321.464 194.815 322.584C194.431 323.704 193.839 324.68 193.039 325.512C192.239 326.376 191.215 327.048 189.967 327.528C188.751 328.008 187.311 328.248 185.647 328.248H165.871C164.207 328.248 162.767 328.008 161.551 327.528C160.367 327.048 159.391 326.376 158.623 325.512C157.855 324.68 157.279 323.704 156.895 322.584C156.543 321.464 156.367 320.264 156.367 318.984C156.367 317.704 156.559 316.504 156.943 315.384C157.327 314.264 157.903 313.288 158.671 312.456C159.471 311.624 160.479 310.968 161.695 310.488C162.911 310.008 164.351 309.768 166.015 309.768H185.791ZM183.631 320.424C184.367 320.424 184.943 320.328 185.359 320.136C185.807 319.912 186.031 319.528 186.031 318.984C186.031 318.44 185.823 318.072 185.407 317.88C184.991 317.656 184.399 317.544 183.631 317.544H168.175C167.407 317.544 166.815 317.656 166.399 317.88C165.983 318.072 165.775 318.44 165.775 318.984C165.775 319.528 165.983 319.912 166.399 320.136C166.847 320.328 167.439 320.424 168.175 320.424H183.631ZM185.119 298.2V295.08H179.407V295.56C179.407 296.04 179.375 296.504 179.311 296.952C179.247 297.368 179.167 297.784 179.071 298.2H185.119ZM240.136 327.48H230.68V323.064L226.504 327.48H203.56V311.112H240.136V327.48ZM208.696 309.864C207.416 309.864 206.248 309.672 205.192 309.288C204.136 308.904 203.224 308.376 202.456 307.704C201.72 307 201.144 306.184 200.728 305.256C200.312 304.296 200.104 303.256 200.104 302.136C200.104 301.016 200.312 299.992 200.728 299.064C201.144 298.104 201.72 297.288 202.456 296.616C203.224 295.912 204.136 295.368 205.192 294.984C206.248 294.6 207.416 294.408 208.696 294.408H217.144C218.424 294.408 219.592 294.6 220.648 294.984C221.704 295.368 222.6 295.912 223.336 296.616C224.104 297.288 224.696 298.104 225.112 299.064C225.528 299.992 225.736 301.016 225.736 302.136C225.736 303.256 225.528 304.296 225.112 305.256C224.696 306.184 224.104 307 223.336 307.704C222.6 308.376 221.704 308.904 220.648 309.288C219.592 309.672 218.424 309.864 217.144 309.864H208.696ZM240.136 309.72H230.728V304.344H226.504V296.28H230.728V285.096H240.136V309.72ZM226.84 293.352H199.528V287.352H208.504V283.512H218.056V287.352H226.84V293.352ZM230.728 320.28V318.216H212.968V320.28H230.728ZM214.792 303.72C215.272 303.72 215.656 303.576 215.944 303.288C216.264 302.968 216.424 302.584 216.424 302.136C216.424 301.688 216.264 301.32 215.944 301.032C215.656 300.712 215.272 300.552 214.792 300.552H211.048C210.568 300.552 210.168 300.712 209.848 301.032C209.56 301.32 209.416 301.688 209.416 302.136C209.416 302.584 209.56 302.968 209.848 303.288C210.168 303.576 210.568 303.72 211.048 303.72H214.792ZM276.578 283.848C279.458 283.848 281.746 284.504 283.442 285.816C285.138 287.096 285.986 288.872 285.986 291.144C285.986 293.416 285.138 295.208 283.442 296.52C281.746 297.8 279.458 298.44 276.578 298.44H255.554C252.674 298.44 250.386 297.8 248.69 296.52C246.994 295.208 246.146 293.416 246.146 291.144C246.146 288.872 246.994 287.096 248.69 285.816C250.386 284.504 252.674 283.848 255.554 283.848H276.578ZM274.898 292.488C275.41 292.488 275.81 292.36 276.098 292.104C276.418 291.848 276.578 291.528 276.578 291.144C276.578 290.76 276.418 290.44 276.098 290.184C275.81 289.928 275.41 289.8 274.898 289.8H257.234C256.722 289.8 256.306 289.928 255.986 290.184C255.698 290.44 255.554 290.76 255.554 291.144C255.554 291.528 255.698 291.848 255.986 292.104C256.306 292.36 256.722 292.488 257.234 292.488H274.898ZM287.234 306.168H244.898V300.024H287.234V306.168ZM285.506 327.48H247.106V314.952H275.618V313.512H247.106V307.752H285.026V320.04H256.514V321.528H285.506V327.48ZM335.406 310.824C337.07 310.824 338.494 311.064 339.678 311.544C340.894 311.992 341.886 312.616 342.654 313.416C343.454 314.184 344.046 315.112 344.43 316.2C344.814 317.256 345.006 318.376 345.006 319.56C345.006 320.744 344.798 321.864 344.382 322.92C343.998 323.976 343.406 324.888 342.606 325.656C341.806 326.456 340.798 327.08 339.582 327.528C338.366 328.008 336.926 328.248 335.262 328.248H314.19C312.526 328.248 311.102 328.008 309.918 327.528C308.734 327.08 307.758 326.456 306.99 325.656C306.222 324.888 305.646 323.976 305.262 322.92C304.91 321.864 304.734 320.744 304.734 319.56C304.734 318.376 304.926 317.256 305.31 316.2C305.694 315.112 306.27 314.184 307.038 313.416C307.838 312.616 308.83 311.992 310.014 311.544C311.23 311.064 312.67 310.824 314.334 310.824H335.406ZM346.062 308.952H303.726V301.656H316.638V295.416H326.862V301.656H346.062V308.952ZM343.854 299.976H334.446V292.536H305.934V285.24H343.854V299.976ZM333.294 321C334.03 321 334.606 320.872 335.022 320.616C335.47 320.328 335.694 319.976 335.694 319.56C335.694 319.112 335.486 318.76 335.07 318.504C334.654 318.216 334.062 318.072 333.294 318.072H316.494C315.726 318.072 315.134 318.216 314.718 318.504C314.302 318.76 314.094 319.112 314.094 319.56C314.094 319.976 314.302 320.328 314.718 320.616C315.166 320.872 315.758 321 316.494 321H333.294ZM362.679 307.32C360.695 307.32 358.935 307.032 357.399 306.456C355.895 305.88 354.631 305.08 353.607 304.056C352.615 303.032 351.863 301.832 351.351 300.456C350.839 299.08 350.583 297.576 350.583 295.944C350.583 294.312 350.839 292.808 351.351 291.432C351.863 290.056 352.615 288.856 353.607 287.832C354.631 286.808 355.895 286.008 357.399 285.432C358.935 284.856 360.695 284.568 362.679 284.568H378.327C380.311 284.568 382.055 284.856 383.559 285.432C385.095 286.008 386.359 286.808 387.351 287.832C388.375 288.856 389.143 290.056 389.655 291.432C390.167 292.808 390.423 294.312 390.423 295.944C390.423 297.576 390.167 299.08 389.655 300.456C389.143 301.832 388.375 303.032 387.351 304.056C386.359 305.08 385.095 305.88 383.559 306.456C382.055 307.032 380.311 307.32 378.327 307.32H362.679ZM383.847 327.48H374.439V318.216H366.567V327.48H357.159V318.216H349.335V310.152H391.671V318.216H383.847V327.48ZM377.271 299.208C378.423 299.208 379.335 298.888 380.007 298.248C380.679 297.576 381.015 296.808 381.015 295.944C381.015 295.08 380.679 294.328 380.007 293.688C379.335 293.016 378.423 292.68 377.271 292.68H363.735C362.583 292.68 361.671 293.016 360.999 293.688C360.327 294.328 359.991 295.08 359.991 295.944C359.991 296.808 360.327 297.576 360.999 298.248C361.671 298.888 362.583 299.208 363.735 299.208H377.271ZM436.705 327.48H427.873V310.872H425.953V327.096H417.217V285.24H425.953V302.28H427.873V285.096H436.705V327.48ZM415.585 315.192C415.585 318.232 414.721 320.6 412.993 322.296C411.265 324.024 408.705 324.888 405.312 324.888C401.921 324.888 399.377 324.04 397.681 322.344C395.985 320.68 395.137 318.296 395.137 315.192V307.56C395.137 304.456 395.985 302.024 397.681 300.264C399.377 298.504 401.921 297.624 405.312 297.624C408.705 297.624 411.265 298.504 412.993 300.264C414.721 302.024 415.585 304.456 415.585 307.56V315.192ZM416.065 296.712H394.657V288.84H400.705V284.664H410.305V288.84H416.065V296.712ZM403.681 315.192C403.681 315.928 403.841 316.44 404.161 316.728C404.513 316.984 404.913 317.112 405.361 317.112C405.809 317.112 406.193 316.984 406.513 316.728C406.865 316.44 407.041 315.928 407.041 315.192V307.368C407.041 306.632 406.865 306.12 406.513 305.832C406.193 305.544 405.809 305.4 405.361 305.4C404.913 305.4 404.513 305.544 404.161 305.832C403.841 306.12 403.681 306.632 403.681 307.368V315.192ZM482.89 325.944H440.554V317.88H456.538V312.12H443.242V285.816H452.65V291.24H470.794V285.816H480.202V312.12H466.906V317.88H482.89V325.944ZM470.794 304.056V299.304H452.65V304.056H470.794ZM517.411 327.096H508.675V320.952L502.435 324.12C501.475 322.104 500.547 320.12 499.651 318.168C498.755 316.184 497.891 314.184 497.059 312.168C496.131 314.312 495.139 316.424 494.083 318.504C493.059 320.584 491.987 322.664 490.867 324.744L483.475 320.472C484.915 317.4 486.323 314.392 487.699 311.448C489.075 308.472 490.323 305.432 491.443 302.328C491.699 301.592 491.875 300.824 491.971 300.024C492.067 299.224 492.115 298.36 492.115 297.432V285.768H501.283V297.432C501.283 298.36 501.363 299.224 501.523 300.024C501.683 300.824 501.907 301.592 502.195 302.328C503.187 304.888 504.227 307.416 505.315 309.912C506.435 312.408 507.555 314.904 508.675 317.4V303.672H503.923V295.272H508.675V285.24H517.411V327.096ZM527.923 327.48H519.091V285.096H527.923V327.48ZM574.109 325.944H531.773V317.88H539.597V310.968C537.453 309.752 535.853 308.088 534.797 305.976C533.773 303.864 533.261 301.56 533.261 299.064C533.261 297.24 533.549 295.496 534.125 293.832C534.701 292.168 535.565 290.712 536.717 289.464C537.869 288.184 539.309 287.176 541.037 286.44C542.797 285.704 544.861 285.336 547.229 285.336H558.653C561.021 285.336 563.069 285.704 564.797 286.44C566.557 287.176 568.013 288.184 569.165 289.464C570.317 290.712 571.181 292.168 571.757 293.832C572.333 295.496 572.621 297.24 572.621 299.064C572.621 301.56 572.093 303.864 571.037 305.976C570.013 308.088 568.429 309.752 566.285 310.968V317.88H574.109V325.944ZM557.261 304.728C559.213 304.728 560.685 304.2 561.677 303.144C562.701 302.088 563.213 300.728 563.213 299.064C563.213 297.4 562.701 296.04 561.677 294.984C560.685 293.928 559.213 293.4 557.261 293.4H548.621C546.669 293.4 545.181 293.928 544.157 294.984C543.165 296.04 542.669 297.4 542.669 299.064C542.669 300.728 543.165 302.088 544.157 303.144C545.181 304.2 546.669 304.728 548.621 304.728H557.261ZM556.877 317.88V312.792H549.005V317.88H556.877ZM579.494 314.904C579.43 314.168 579.334 313.272 579.206 312.216C579.11 311.128 579.014 310.056 578.918 309C578.822 307.912 578.726 306.888 578.63 305.928C578.566 304.968 578.534 304.248 578.534 303.768V284.76H588.422V303.768C588.422 304.28 588.374 305.016 588.278 305.976C588.214 306.904 588.134 307.912 588.038 309C587.942 310.088 587.83 311.16 587.702 312.216C587.606 313.272 587.526 314.168 587.462 314.904H579.494ZM588.278 326.232H578.678V318.12H588.278V326.232Z" fill="#7C7A7A"/>
</svg>
